<mxfile host="app.diagrams.net" agent="Mozilla/5.0 (Windows NT 10.0; Win64; x64) AppleWebKit/537.36 (KHTML, like Gecko) Chrome/141.0.0.0 Safari/537.36 Edg/141.0.0.0" version="28.2.5">
  <diagram name="Page-1" id="fO9HQv5Pn3LXpokbPgUZ">
    <mxGraphModel dx="1373" dy="730" grid="1" gridSize="10" guides="1" tooltips="1" connect="1" arrows="1" fold="1" page="1" pageScale="1" pageWidth="850" pageHeight="1100" math="0" shadow="0">
      <root>
        <mxCell id="0" />
        <mxCell id="1" parent="0" />
        <mxCell id="ZNzv1cibr1xEfNDu9kBz-15" style="edgeStyle=orthogonalEdgeStyle;rounded=0;orthogonalLoop=1;jettySize=auto;html=1;exitX=1;exitY=0.5;exitDx=0;exitDy=0;entryX=0;entryY=0.5;entryDx=0;entryDy=0;" edge="1" parent="1" source="ZNzv1cibr1xEfNDu9kBz-1" target="ZNzv1cibr1xEfNDu9kBz-9">
          <mxGeometry relative="1" as="geometry" />
        </mxCell>
        <mxCell id="ZNzv1cibr1xEfNDu9kBz-1" value="Literature Search" style="rounded=0;whiteSpace=wrap;html=1;" vertex="1" parent="1">
          <mxGeometry x="240" y="250" width="120" height="60" as="geometry" />
        </mxCell>
        <mxCell id="ZNzv1cibr1xEfNDu9kBz-16" style="edgeStyle=orthogonalEdgeStyle;rounded=0;orthogonalLoop=1;jettySize=auto;html=1;exitX=1;exitY=0.5;exitDx=0;exitDy=0;entryX=0;entryY=0.5;entryDx=0;entryDy=0;" edge="1" parent="1" source="ZNzv1cibr1xEfNDu9kBz-9" target="ZNzv1cibr1xEfNDu9kBz-11">
          <mxGeometry relative="1" as="geometry" />
        </mxCell>
        <mxCell id="ZNzv1cibr1xEfNDu9kBz-9" value="Paper Screening" style="rounded=0;whiteSpace=wrap;html=1;" vertex="1" parent="1">
          <mxGeometry x="440" y="250" width="120" height="60" as="geometry" />
        </mxCell>
        <mxCell id="ZNzv1cibr1xEfNDu9kBz-17" style="edgeStyle=orthogonalEdgeStyle;rounded=0;orthogonalLoop=1;jettySize=auto;html=1;exitX=1;exitY=0.5;exitDx=0;exitDy=0;entryX=0;entryY=0.5;entryDx=0;entryDy=0;" edge="1" parent="1" source="ZNzv1cibr1xEfNDu9kBz-11" target="ZNzv1cibr1xEfNDu9kBz-13">
          <mxGeometry relative="1" as="geometry" />
        </mxCell>
        <mxCell id="ZNzv1cibr1xEfNDu9kBz-11" value="Data Extraction" style="rounded=0;whiteSpace=wrap;html=1;" vertex="1" parent="1">
          <mxGeometry x="640" y="250" width="120" height="60" as="geometry" />
        </mxCell>
        <mxCell id="ZNzv1cibr1xEfNDu9kBz-21" style="edgeStyle=orthogonalEdgeStyle;rounded=0;orthogonalLoop=1;jettySize=auto;html=1;exitX=1;exitY=0.5;exitDx=0;exitDy=0;" edge="1" parent="1" source="ZNzv1cibr1xEfNDu9kBz-13" target="ZNzv1cibr1xEfNDu9kBz-18">
          <mxGeometry relative="1" as="geometry" />
        </mxCell>
        <mxCell id="ZNzv1cibr1xEfNDu9kBz-13" value="Main Data Construction" style="rounded=0;whiteSpace=wrap;html=1;" vertex="1" parent="1">
          <mxGeometry x="840" y="250" width="120" height="60" as="geometry" />
        </mxCell>
        <mxCell id="ZNzv1cibr1xEfNDu9kBz-22" style="edgeStyle=orthogonalEdgeStyle;rounded=0;orthogonalLoop=1;jettySize=auto;html=1;exitX=1;exitY=0.5;exitDx=0;exitDy=0;entryX=0;entryY=0.5;entryDx=0;entryDy=0;" edge="1" parent="1" source="ZNzv1cibr1xEfNDu9kBz-18" target="ZNzv1cibr1xEfNDu9kBz-19">
          <mxGeometry relative="1" as="geometry" />
        </mxCell>
        <mxCell id="ZNzv1cibr1xEfNDu9kBz-18" value="Taxonomy Building" style="rounded=0;whiteSpace=wrap;html=1;" vertex="1" parent="1">
          <mxGeometry x="1040" y="250" width="120" height="60" as="geometry" />
        </mxCell>
        <mxCell id="ZNzv1cibr1xEfNDu9kBz-23" style="edgeStyle=orthogonalEdgeStyle;rounded=0;orthogonalLoop=1;jettySize=auto;html=1;exitX=1;exitY=0.5;exitDx=0;exitDy=0;entryX=0;entryY=0.5;entryDx=0;entryDy=0;" edge="1" parent="1" source="ZNzv1cibr1xEfNDu9kBz-19" target="ZNzv1cibr1xEfNDu9kBz-20">
          <mxGeometry relative="1" as="geometry" />
        </mxCell>
        <mxCell id="ZNzv1cibr1xEfNDu9kBz-19" value="Quantitative Analysis" style="rounded=0;whiteSpace=wrap;html=1;" vertex="1" parent="1">
          <mxGeometry x="1240" y="250" width="120" height="60" as="geometry" />
        </mxCell>
        <mxCell id="ZNzv1cibr1xEfNDu9kBz-20" value="Validation &amp;amp; Visualization" style="rounded=0;whiteSpace=wrap;html=1;" vertex="1" parent="1">
          <mxGeometry x="1440" y="250" width="120" height="60" as="geometry" />
        </mxCell>
      </root>
    </mxGraphModel>
  </diagram>
</mxfile>
